<svg xmlns="http://www.w3.org/2000/svg" width="232" height="40" fill="none"><path fill="#fff" d="M7.375 16.667q.583-1.5.187-2.667t-1.354-2.333Q4.834 10 4.396 8.521 3.959 7.041 4.25 5H7.5q-.333 1.584-.104 2.583.229 1.001 1.187 2.167 1.584 1.917 2.021 3.396.438 1.48.02 3.52h-3.25Zm6.667 0q.583-1.5.208-2.667t-1.333-2.333Q11.542 10 11.083 8.521q-.457-1.48-.166-3.521h3.25q-.334 1.584-.105 2.583.23 1.001 1.188 2.167 1.584 1.917 2.02 3.396.439 1.48.022 3.52h-3.25Zm6.666 0q.584-1.5.209-2.667t-1.334-2.333Q18.209 10 17.75 8.521q-.459-1.48-.167-3.521h3.25q-.333 1.584-.104 2.583.23 1.001 1.188 2.167 1.583 1.917 2.02 3.396.438 1.48.021 3.52h-3.25ZM8.333 33.333q-2.084 0-3.541-1.458-1.46-1.458-1.459-3.542V20h23.375a4.8 4.8 0 0 1 1.125-2.48 5.1 5.1 0 0 1 2.25-1.52l7.709-2.583 1.041 3.166-7.708 2.584a1.6 1.6 0 0 0-.813.604 1.65 1.65 0 0 0-.312.979v7.583q0 2.085-1.458 3.542-1.459 1.458-3.542 1.458zm0-3.333H25q.708 0 1.187-.48.48-.478.48-1.187v-5h-20v5q0 .709.479 1.188.48.48 1.187.479m73.407-8.82q-.88-.3-1.6-.6a5.1 5.1 0 0 1-1.24-.76 3.3 3.3 0 0 1-.82-1.04q-.28-.62-.28-1.5 0-1.7 1.3-2.72 1.32-1.02 3.68-1.02.86 0 1.6.12t1.26.38q.54.24.84.64.3.38.3.9c0 .52-.08.647-.24.9q-.24.36-.58.62-.44-.28-1.18-.48a5.7 5.7 0 0 0-1.62-.22q-.9 0-1.32.26-.42.24-.42.62 0 .3.26.5.26.18.78.34l1.06.34q1.88.6 2.88 1.54 1.02.92 1.02 2.52 0 1.7-1.34 2.76-1.34 1.04-3.94 1.04a8.8 8.8 0 0 1-1.72-.16 5.6 5.6 0 0 1-1.38-.42q-.58-.3-.92-.72a1.66 1.66 0 0 1-.32-1q0-.58.34-.98.34-.42.74-.64.56.44 1.36.76.82.32 1.78.32.98 0 1.38-.3t.4-.7-.32-.6q-.32-.22-.9-.42zm12.835-2.52a2.9 2.9 0 0 0-.96.16 2.25 2.25 0 0 0-.78.48 2.3 2.3 0 0 0-.52.76q-.2.46-.2 1.08 0 1.24.7 1.86.72.62 1.74.62.6 0 1.04-.14t.78-.3q.399.28.6.62.2.32.2.78 0 .82-.78 1.28-.78.44-2.16.44-1.26 0-2.28-.36a5.5 5.5 0 0 1-1.76-1.04 4.8 4.8 0 0 1-1.12-1.62q-.4-.94-.4-2.08 0-1.32.42-2.3.44-1 1.18-1.64a5 5 0 0 1 1.7-.96 6.6 6.6 0 0 1 2.06-.32q1.44 0 2.22.52t.78 1.34q0 .38-.18.72-.18.32-.42.56a6 6 0 0 0-.82-.3 3.3 3.3 0 0 0-1.04-.16m7.705 7.32q-.2.06-.64.12-.42.06-.88.06-.44 0-.8-.06-.34-.06-.58-.24t-.38-.48q-.12-.32-.12-.82v-6q0-.46.16-.78a1.9 1.9 0 0 1 .5-.6q.32-.26.78-.46a7.7 7.7 0 0 1 2.14-.62q.58-.1 1.16-.1.96 0 1.52.38.56.36.56 1.2 0 .28-.08.56a2.6 2.6 0 0 1-.2.48 9.5 9.5 0 0 0-1.72.16q-.42.08-.8.18-.36.08-.62.2zm9.591.34q-1.18 0-2.2-.32a5.2 5.2 0 0 1-1.76-1 4.8 4.8 0 0 1-1.18-1.66q-.42-1-.42-2.34 0-1.32.42-2.26.441-.96 1.14-1.56.7-.62 1.6-.9.9-.3 1.84-.3 1.06 0 1.92.32a4.5 4.5 0 0 1 1.5.88q.64.56.98 1.34.36.78.36 1.7 0 .68-.38 1.04t-1.06.46l-4.94.74q.22.66.9 1 .681.32 1.56.32.82 0 1.54-.2.741-.22 1.2-.5.321.2.54.56t.22.76q0 .9-.84 1.34-.639.34-1.44.46t-1.5.12m-.56-7.86q-.48 0-.84.16a1.6 1.6 0 0 0-.56.42 1.7 1.7 0 0 0-.34.56q-.099.3-.12.62l3.42-.56q-.06-.4-.44-.8t-1.12-.4m11.877.2q-.5 0-.96.16a2.3 2.3 0 0 0-.78.48 2.3 2.3 0 0 0-.52.76 2.7 2.7 0 0 0-.2 1.08q0 1.24.7 1.86.72.62 1.74.62.6 0 1.04-.14t.78-.3q.4.28.6.62.2.32.2.78 0 .82-.78 1.28-.78.44-2.16.44-1.26 0-2.28-.36a5.5 5.5 0 0 1-1.76-1.04 4.8 4.8 0 0 1-1.12-1.62q-.4-.94-.4-2.08 0-1.32.42-2.3.44-1 1.18-1.64a5 5 0 0 1 1.7-.96 6.6 6.6 0 0 1 2.06-.32q1.44 0 2.22.52t.78 1.34q0 .38-.18.72-.18.32-.42.56a6 6 0 0 0-.82-.3 3.3 3.3 0 0 0-1.04-.16m7.705 4q0 .52.32.74.34.22.94.22.3 0 .62-.04a4 4 0 0 0 .56-.14q.18.22.3.5.14.26.14.64 0 .76-.58 1.24-.56.48-2 .48-1.76 0-2.72-.8-.94-.8-.94-2.6v-8.56q.22-.06.62-.12.42-.08.88-.08.88 0 1.36.32.5.3.5 1.3v1.28h2.62q.12.22.22.56.12.32.12.72 0 .7-.32 1.02-.3.3-.82.3h-1.82zm15.587-6.34q-1.54 0-2.36.94t-.82 2.66q0 1.74.9 2.68.92.94 2.46.94.82 0 1.38-.22a9 9 0 0 0 1.1-.5q.34.28.52.68.2.38.2.9 0 .82-.92 1.4-.9.56-2.76.56a8.2 8.2 0 0 1-2.52-.38 5.7 5.7 0 0 1-2.06-1.16q-.88-.8-1.4-2-.5-1.22-.5-2.9 0-1.56.48-2.74.5-1.2 1.34-2.02a5.7 5.7 0 0 1 2-1.24q1.14-.42 2.44-.42 1.84 0 2.84.6 1.02.6 1.02 1.54 0 .52-.26.9a2.1 2.1 0 0 1-.6.6 6.4 6.4 0 0 0-1.12-.58q-.58-.24-1.36-.24m14.792 4.82q0 1.24-.38 2.22a4.4 4.4 0 0 1-1.08 1.62q-.68.66-1.64 1t-2.14.34-2.14-.36a4.9 4.9 0 0 1-1.66-1.02q-.68-.68-1.06-1.64t-.38-2.16q0-1.18.38-2.14t1.06-1.62q.7-.68 1.66-1.04t2.14-.36 2.14.38a4.5 4.5 0 0 1 1.64 1.04q.7.66 1.08 1.62t.38 2.12m-7 0q0 1.22.46 1.88.48.64 1.32.64c.84 0 .987-.22 1.28-.66q.46-.66.46-1.86c0-1.2-.153-1.413-.46-1.84q-.46-.66-1.3-.66c-.84 0-.993.22-1.3.66q-.46.64-.46 1.84m18.719 0q0 1.24-.38 2.22a4.45 4.45 0 0 1-1.08 1.62q-.68.66-1.64 1t-2.14.34-2.14-.36a4.9 4.9 0 0 1-1.66-1.02q-.68-.68-1.06-1.64t-.38-2.16q0-1.18.38-2.14t1.06-1.62q.7-.68 1.66-1.04t2.14-.36 2.14.38q.96.36 1.64 1.04.699.66 1.08 1.62.38.96.38 2.12m-7 0q0 1.22.46 1.88.48.64 1.32.64c.84 0 .986-.22 1.28-.66q.46-.66.46-1.86c0-1.2-.154-1.413-.46-1.84q-.46-.66-1.3-.66c-.84 0-.994.22-1.3.66q-.46.64-.46 1.84m18.158 3.1q-.1.94-.56 1.44-.44.5-1.3.5-.639 0-1.14-.3-.5-.32-1.08-1.06l-1.98-2.48v3.64a16 16 0 0 1-.66.1q-.42.08-.86.08t-.8-.06q-.34-.06-.58-.24a1.25 1.25 0 0 1-.38-.48q-.12-.32-.12-.82V12.98q.22-.06.64-.12a5 5 0 0 1 1.66-.02q.36.06.6.24t.36.5q.14.3.14.8v5.28l3.44-3.52q1.04 0 1.66.46.64.46.64 1.16 0 .3-.1.56-.1.24-.32.5-.2.26-.54.56-.32.28-.76.66l-1.16 1zm1.634-11.26q.2-.06.64-.12.44-.08.9-.08.44 0 .78.06.36.06.6.24t.36.5q.12.3.12.8v1.96q.5-.2.94-.28.46-.08 1-.08.96 0 1.82.34t1.52 1q.66.64 1.04 1.6t.38 2.22q0 1.3-.4 2.28a4.24 4.24 0 0 1-1.08 1.6q-.7.64-1.72.98-1 .32-2.22.32-1.32 0-2.24-.32-.92-.3-1.56-.76-.88-.62-.88-1.6zm4.68 10.66q.92 0 1.42-.62.52-.64.52-1.88 0-1.26-.52-1.88t-1.4-.62q-.4 0-.7.08a4 4 0 0 0-.62.24v4.36q.22.14.52.24.32.08.78.08m17.137-2.5q0 1.24-.38 2.22a4.4 4.4 0 0 1-1.08 1.62q-.68.66-1.64 1t-2.14.34-2.14-.36a4.9 4.9 0 0 1-1.66-1.02q-.68-.68-1.06-1.64t-.38-2.16q0-1.18.38-2.14t1.06-1.62q.7-.68 1.66-1.04t2.14-.36 2.14.38a4.5 4.5 0 0 1 1.64 1.04q.7.66 1.08 1.62t.38 2.12m-7 0q0 1.22.46 1.88.48.64 1.32.64c.84 0 .987-.22 1.28-.66q.46-.66.46-1.86c0-1.2-.153-1.413-.46-1.84q-.46-.66-1.3-.66c-.84 0-.993.22-1.3.66q-.46.64-.46 1.84m18.719 0q0 1.24-.38 2.22a4.45 4.45 0 0 1-1.08 1.62q-.68.66-1.64 1t-2.14.34-2.14-.36a4.9 4.9 0 0 1-1.66-1.02q-.68-.68-1.06-1.64t-.38-2.16q0-1.18.38-2.14t1.06-1.62q.7-.68 1.66-1.04t2.14-.36 2.14.38q.96.36 1.64 1.04.699.66 1.08 1.62.38.96.38 2.12m-7 0q0 1.22.46 1.88.48.64 1.32.64c.84 0 .986-.22 1.28-.66q.46-.66.46-1.86c0-1.2-.154-1.413-.46-1.84q-.46-.66-1.3-.66c-.84 0-.994.22-1.3.66q-.46.64-.46 1.84m18.159 3.1q-.1.94-.56 1.44-.44.5-1.3.5-.64 0-1.14-.3-.501-.32-1.08-1.06l-1.98-2.48v3.64q-.22.04-.66.1-.42.08-.86.08t-.8-.06q-.34-.06-.58-.24t-.38-.48q-.12-.32-.12-.82V12.98q.22-.06.64-.12.44-.08.88-.08t.78.06q.36.06.6.24t.36.5q.14.3.14.8v5.28l3.44-3.52q1.04 0 1.66.46.64.46.64 1.16 0 .3-.1.56a2 2 0 0 1-.32.5 4.2 4.2 0 0 1-.54.56q-.32.28-.76.66l-1.16 1zM55.68 23.02q-.26.22-.68.36-.4.12-.94.12-.72 0-1.2-.18-.46-.18-.6-.62a224 224 0 0 0-.92-2.84 26 26 0 0 1-.56-1.92h-.1q-.06 1.18-.1 2.16l-.04 1.88q0 .92-.04 1.86-.02.94-.08 2.08a3.2 3.2 0 0 1-.68.16q-.42.08-.84.08-.88 0-1.38-.28-.48-.28-.48-1.02l.58-10.2q.16-.26.7-.56t1.52-.3q1.06 0 1.66.34.6.32.88 1.06.18.48.38 1.1.22.62.42 1.28.22.66.42 1.32l.36 1.16h.1q.48-1.68.96-3.24.48-1.58.88-2.64.3-.16.76-.26.48-.12 1.06-.12.98 0 1.6.3.62.28.72.82.08.4.16 1.24.1.82.2 1.86a224 224 0 0 1 .38 4.44 72 72 0 0 1 .24 3.32 2.4 2.4 0 0 1-.72.28q-.36.1-.94.1-.76 0-1.28-.26t-.56-1.02q-.12-2.18-.16-3.92a76 76 0 0 0-.08-2.92h-.1q-.2.78-.58 1.96t-.92 3.02m8.524.5a72 72 0 0 1-.48-1.12q-.24-.62-.52-1.42-.26-.8-.56-1.82a87 87 0 0 1-.6-2.38q.28-.28.74-.48.48-.22 1.04-.22.7 0 1.16.3.46.28.68 1.08l1.58 5.5h.08q.24-.68.46-1.48.24-.8.46-1.64.22-.86.4-1.7a28 28 0 0 0 .34-1.68 3.33 3.33 0 0 1 1.58-.38q.7 0 1.16.3t.46 1.04q0 .54-.14 1.26-.14.7-.38 1.5a20 20 0 0 1-.54 1.66q-.3.84-.64 1.66t-.7 1.56q-.36.72-.7 1.3-.56.98-1.04 1.6t-.92.96q-.44.36-.88.48-.44.14-.92.14-.84 0-1.36-.5t-.62-1.3q.64-.5 1.28-1.12.64-.6 1.16-1.24-.34-.1-.74-.46-.38-.38-.84-1.4"/></svg>