<svg width="48" height="48" viewBox="0 0 48 48" fill="none" xmlns="http://www.w3.org/2000/svg">
<path d="M8.85 20C9.31667 18.8 9.39167 17.7333 9.075 16.8C8.75833 15.8667 8.21667 14.9333 7.45 14C6.35 12.6667 5.625 11.4083 5.275 10.225C4.925 9.04167 4.86667 7.63333 5.1 6H9C8.73333 7.26667 8.69167 8.3 8.875 9.1C9.05833 9.9 9.53333 10.7667 10.3 11.7C11.5667 13.2333 12.375 14.5917 12.725 15.775C13.075 16.9583 13.0833 18.3667 12.75 20H8.85ZM16.85 20C17.3167 18.8 17.4 17.7333 17.1 16.8C16.8 15.8667 16.2667 14.9333 15.5 14C14.4 12.6667 13.6667 11.4083 13.3 10.225C12.9333 9.04167 12.8667 7.63333 13.1 6H17C16.7333 7.26667 16.6917 8.3 16.875 9.1C17.0583 9.9 17.5333 10.7667 18.3 11.7C19.5667 13.2333 20.375 14.5917 20.725 15.775C21.075 16.9583 21.0833 18.3667 20.75 20H16.85ZM24.85 20C25.3167 18.8 25.4 17.7333 25.1 16.8C24.8 15.8667 24.2667 14.9333 23.5 14C22.4 12.6667 21.6667 11.4083 21.3 10.225C20.9333 9.04167 20.8667 7.63333 21.1 6H25C24.7333 7.26667 24.6917 8.3 24.875 9.1C25.0583 9.9 25.5333 10.7667 26.3 11.7C27.5667 13.2333 28.375 14.5917 28.725 15.775C29.075 16.9583 29.0833 18.3667 28.75 20H24.85ZM10 40C8.33333 40 6.91667 39.4167 5.75 38.25C4.58333 37.0833 4 35.6667 4 34V24H32.05C32.2167 22.8667 32.6667 21.875 33.4 21.025C34.1333 20.175 35.0333 19.5667 36.1 19.2L45.35 16.1L46.6 19.9L37.35 23C36.95 23.1333 36.625 23.375 36.375 23.725C36.125 24.075 36 24.4667 36 24.9V34C36 35.6667 35.4167 37.0833 34.25 38.25C33.0833 39.4167 31.6667 40 30 40H10ZM10 36H30C30.5667 36 31.0417 35.8083 31.425 35.425C31.8083 35.0417 32 34.5667 32 34V28H8V34C8 34.5667 8.19167 35.0417 8.575 35.425C8.95833 35.8083 9.43333 36 10 36Z" fill="black"/>
</svg>
