<svg xmlns="http://www.w3.org/2000/svg" width="274" height="48" fill="none"><path fill="#000" d="M8.85 20q.7-1.8.225-3.2T7.45 14q-1.65-2-2.175-3.775T5.1 6H9q-.4 1.9-.125 3.1.274 1.2 1.425 2.6 1.9 2.3 2.425 4.075T12.75 20zm8 0q.7-1.8.25-3.2T15.5 14q-1.65-2-2.2-3.775T13.1 6H17q-.4 1.9-.125 3.1t1.425 2.6q1.9 2.3 2.425 4.075T20.75 20zm8 0q.7-1.8.25-3.2T23.5 14q-1.65-2-2.2-3.775T21.1 6H25q-.4 1.9-.125 3.1t1.425 2.6q1.9 2.3 2.425 4.075T28.75 20zM10 40q-2.5 0-4.25-1.75T4 34V24h28.05a5.74 5.74 0 0 1 1.35-2.975 6.14 6.14 0 0 1 2.7-1.825l9.25-3.1 1.25 3.8-9.25 3.1q-.6.2-.975.725C36 24.25 36 24.467 36 24.9V34q0 2.5-1.75 4.25T30 40zm0-4h20q.85 0 1.425-.575T32 34v-6H8v6q0 .85.575 1.425T10 36m85.688-9.784q-1.056-.36-1.92-.72a6.2 6.2 0 0 1-1.488-.912 3.9 3.9 0 0 1-.984-1.248q-.336-.744-.336-1.8 0-2.04 1.56-3.264 1.584-1.224 4.416-1.224 1.032 0 1.92.144t1.512.456q.648.288 1.008.768.36.456.36 1.08t-.288 1.08a3.1 3.1 0 0 1-.696.744q-.528-.336-1.416-.576a6.8 6.8 0 0 0-1.944-.264q-1.08 0-1.584.312-.504.288-.504.744 0 .36.312.6.312.216.936.408l1.272.408q2.256.72 3.456 1.848 1.224 1.104 1.224 3.024 0 2.04-1.608 3.312-1.608 1.248-4.728 1.248-1.104 0-2.064-.192a6.7 6.7 0 0 1-1.656-.504q-.696-.36-1.104-.864a2 2 0 0 1-.384-1.2q0-.696.408-1.176.408-.504.888-.768.672.528 1.632.912a5.8 5.8 0 0 0 2.136.384q1.176 0 1.656-.36t.48-.84-.384-.72q-.384-.264-1.08-.504zm15.402-3.024q-.6 0-1.152.192-.528.192-.936.576-.384.36-.624.912t-.24 1.296q0 1.488.84 2.232.864.744 2.088.744.72 0 1.248-.168t.936-.36q.48.336.72.744.24.384.24.936 0 .984-.936 1.536-.936.528-2.592.528-1.512 0-2.736-.432a6.6 6.6 0 0 1-2.112-1.248 5.7 5.7 0 0 1-1.344-1.944q-.48-1.128-.48-2.496 0-1.584.504-2.76.528-1.2 1.416-1.968a6 6 0 0 1 2.04-1.152 7.9 7.9 0 0 1 2.472-.384q1.728 0 2.664.624t.936 1.608q0 .456-.216.864-.216.384-.504.672a7 7 0 0 0-.984-.36 4 4 0 0 0-1.248-.192m9.246 8.784a6 6 0 0 1-.768.144 7.5 7.5 0 0 1-1.056.072q-.528 0-.96-.072a1.6 1.6 0 0 1-.696-.288 1.5 1.5 0 0 1-.456-.576q-.144-.384-.144-.984v-7.2q0-.552.192-.936.216-.408.6-.72t.936-.552a9.2 9.2 0 0 1 2.568-.744q.696-.12 1.392-.12 1.152 0 1.824.456.672.432.672 1.44 0 .336-.096.672-.096.312-.24.576a11.4 11.4 0 0 0-2.064.192q-.504.096-.96.216a3.7 3.7 0 0 0-.744.24zm11.51.408a8.8 8.8 0 0 1-2.64-.384 6.3 6.3 0 0 1-2.112-1.2q-.888-.792-1.416-1.992-.504-1.2-.504-2.808 0-1.584.504-2.712.528-1.152 1.368-1.872.84-.744 1.92-1.08 1.08-.36 2.208-.36 1.272 0 2.304.384a5.4 5.4 0 0 1 1.8 1.056 4.5 4.5 0 0 1 1.176 1.608q.432.936.432 2.04 0 .816-.456 1.248t-1.272.552l-5.928.888q.264.792 1.08 1.2.816.384 1.872.384.984 0 1.848-.24.888-.264 1.44-.6.384.24.648.672t.264.912q0 1.08-1.008 1.608a5.3 5.3 0 0 1-1.728.552q-.96.144-1.8.144m-.672-9.432q-.576 0-1.008.192a1.96 1.96 0 0 0-.672.504 2 2 0 0 0-.408.672q-.12.36-.144.744l4.104-.672q-.072-.48-.528-.96t-1.344-.48m14.252.24q-.6 0-1.152.192-.528.192-.936.576-.384.36-.624.912t-.24 1.296q0 1.488.84 2.232.864.744 2.088.744.72 0 1.248-.168t.936-.36q.48.336.72.744.24.384.24.936 0 .984-.936 1.536-.936.528-2.592.528-1.512 0-2.736-.432a6.6 6.6 0 0 1-2.112-1.248 5.7 5.7 0 0 1-1.344-1.944q-.48-1.128-.48-2.496 0-1.584.504-2.76.528-1.2 1.416-1.968a6 6 0 0 1 2.04-1.152 7.9 7.9 0 0 1 2.472-.384q1.728 0 2.664.624t.936 1.608q0 .456-.216.864-.216.384-.504.672a7 7 0 0 0-.984-.36 4 4 0 0 0-1.248-.192m9.246 4.8q0 .624.384.888.408.264 1.128.264a6 6 0 0 0 .744-.048q.384-.072.672-.168.216.264.36.6.168.312.168.768 0 .912-.696 1.488-.672.576-2.4.576-2.112 0-3.264-.96-1.128-.96-1.128-3.12V18.008q.264-.072.744-.144a5.6 5.6 0 0 1 1.056-.096q1.056 0 1.632.384.6.36.6 1.56v1.536h3.144q.144.264.264.672.144.384.144.864 0 .84-.384 1.224-.36.36-.984.36h-2.184zm17.304-7.608q-1.848 0-2.832 1.128t-.984 3.192q0 2.088 1.08 3.216 1.104 1.128 2.952 1.128.984 0 1.656-.264.696-.264 1.32-.6.408.336.624.816.24.456.24 1.08 0 .984-1.104 1.68-1.08.672-3.312.672a9.8 9.8 0 0 1-3.024-.456 6.8 6.8 0 0 1-2.472-1.392q-1.056-.96-1.68-2.4-.6-1.464-.6-3.48 0-1.872.576-3.288.6-1.44 1.608-2.424a6.9 6.9 0 0 1 2.4-1.488 8.4 8.4 0 0 1 2.928-.504q2.208 0 3.408.72 1.224.72 1.224 1.848 0 .624-.312 1.08a2.6 2.6 0 0 1-.72.72 7.6 7.6 0 0 0-1.344-.696q-.696-.288-1.632-.288m17.75 5.784q0 1.488-.456 2.664a5.3 5.3 0 0 1-1.296 1.944q-.816.792-1.968 1.2t-2.568.408c-1.416 0-1.8-.144-2.568-.432a5.9 5.9 0 0 1-1.992-1.224 5.7 5.7 0 0 1-1.272-1.968q-.456-1.152-.456-2.592 0-1.416.456-2.568a5.5 5.5 0 0 1 1.272-1.944 5.7 5.7 0 0 1 1.992-1.248q1.152-.432 2.568-.432c1.416 0 1.8.152 2.568.456a5.45 5.45 0 0 1 1.968 1.248 5.3 5.3 0 0 1 1.296 1.944q.456 1.152.456 2.544m-8.4 0q0 1.464.552 2.256.576.768 1.584.768c1.008 0 1.184-.264 1.536-.792q.552-.792.552-2.232t-.552-2.208q-.552-.792-1.56-.792c-1.008 0-1.192.264-1.56.792q-.552.768-.552 2.208m22.463 0q0 1.488-.456 2.664a5.3 5.3 0 0 1-1.296 1.944q-.816.792-1.968 1.2t-2.568.408c-1.416 0-1.8-.144-2.568-.432a5.9 5.9 0 0 1-1.992-1.224 5.7 5.7 0 0 1-1.272-1.968q-.456-1.152-.456-2.592 0-1.416.456-2.568a5.5 5.5 0 0 1 1.272-1.944 5.7 5.7 0 0 1 1.992-1.248q1.152-.432 2.568-.432c1.416 0 1.8.152 2.568.456a5.45 5.45 0 0 1 1.968 1.248 5.3 5.3 0 0 1 1.296 1.944q.456 1.152.456 2.544m-8.4 0q0 1.464.552 2.256.576.768 1.584.768c1.008 0 1.184-.264 1.536-.792q.552-.792.552-2.232t-.552-2.208q-.552-.792-1.56-.792c-1.008 0-1.192.264-1.56.792q-.552.768-.552 2.208m21.79 3.72q-.12 1.128-.672 1.728-.528.6-1.56.6-.768 0-1.368-.36-.6-.384-1.296-1.272l-2.376-2.976v4.368q-.264.048-.792.12-.504.096-1.032.096c-.528 0-.672-.024-.96-.072a1.6 1.6 0 0 1-.696-.288 1.5 1.5 0 0 1-.456-.576q-.144-.384-.144-.984V16.376a7 7 0 0 1 .768-.144 6 6 0 0 1 1.056-.096q.528 0 .936.072.432.072.72.288t.432.6q.168.36.168.96v6.336l4.128-4.224q1.248 0 1.992.552.768.552.768 1.392 0 .36-.12.672-.12.288-.384.6-.24.312-.648.672-.384.336-.912.792l-1.392 1.2zm1.961-13.512a6 6 0 0 1 .768-.144 6 6 0 0 1 1.08-.096q.528 0 .936.072.432.072.72.288t.432.6q.144.36.144.96v2.352q.6-.24 1.128-.336a7 7 0 0 1 1.2-.096q1.152 0 2.184.408a5.3 5.3 0 0 1 1.824 1.2q.792.768 1.248 1.92t.456 2.664q0 1.56-.48 2.736-.456 1.152-1.296 1.92c-.84.768-1.248.904-2.064 1.176q-1.2.384-2.664.384-1.584 0-2.688-.384-1.104-.36-1.872-.912-1.056-.744-1.056-1.92zm5.616 12.792q1.104 0 1.704-.744.624-.768.624-2.256 0-1.512-.624-2.256t-1.68-.744q-.48 0-.84.096-.336.096-.744.288v5.232q.264.168.624.288.384.096.936.096m20.564-3q0 1.488-.456 2.664a5.3 5.3 0 0 1-1.296 1.944q-.816.792-1.968 1.2t-2.568.408c-1.416 0-1.8-.144-2.568-.432a5.9 5.9 0 0 1-1.992-1.224 5.7 5.7 0 0 1-1.272-1.968q-.456-1.152-.456-2.592 0-1.416.456-2.568a5.5 5.5 0 0 1 1.272-1.944 5.7 5.7 0 0 1 1.992-1.248q1.152-.432 2.568-.432c1.416 0 1.8.152 2.568.456a5.45 5.45 0 0 1 1.968 1.248 5.3 5.3 0 0 1 1.296 1.944q.456 1.152.456 2.544m-8.4 0q0 1.464.552 2.256.576.768 1.584.768c1.008 0 1.184-.264 1.536-.792q.552-.792.552-2.232t-.552-2.208q-.552-.792-1.56-.792c-1.008 0-1.192.264-1.56.792q-.552.768-.552 2.208m22.463 0q0 1.488-.456 2.664a5.3 5.3 0 0 1-1.296 1.944q-.816.792-1.968 1.2t-2.568.408c-1.416 0-1.8-.144-2.568-.432a5.9 5.9 0 0 1-1.992-1.224 5.7 5.7 0 0 1-1.272-1.968q-.456-1.152-.456-2.592 0-1.416.456-2.568a5.5 5.5 0 0 1 1.272-1.944 5.7 5.7 0 0 1 1.992-1.248q1.152-.432 2.568-.432c1.416 0 1.8.152 2.568.456a5.45 5.45 0 0 1 1.968 1.248 5.3 5.3 0 0 1 1.296 1.944q.456 1.152.456 2.544m-8.4 0q0 1.464.552 2.256.576.768 1.583.768 1.01 0 1.537-.792.552-.792.552-2.232t-.552-2.208q-.552-.792-1.56-.792c-1.008 0-1.192.264-1.56.792q-.552.768-.552 2.208m21.79 3.72q-.12 1.128-.672 1.728-.528.6-1.56.6-.768 0-1.368-.36-.6-.384-1.296-1.272l-2.376-2.976v4.368q-.264.048-.792.12-.504.096-1.032.096c-.528 0-.672-.024-.96-.072a1.6 1.6 0 0 1-.696-.288 1.5 1.5 0 0 1-.456-.576q-.144-.384-.144-.984V16.376a7 7 0 0 1 .768-.144 6 6 0 0 1 1.056-.096q.528 0 .936.072.432.072.72.288t.432.6q.168.36.168.96v6.336l4.128-4.224q1.248 0 1.992.552.768.552.768 1.392 0 .36-.12.672-.12.288-.384.6-.24.312-.648.672-.384.336-.912.792l-1.392 1.2zM65.616 28.424q-.312.264-.816.432-.48.144-1.128.144-.864 0-1.44-.216-.552-.216-.72-.744a273 273 0 0 0-1.104-3.408 32 32 0 0 1-.672-2.304h-.12q-.072 1.416-.12 2.592l-.048 2.256q0 1.104-.048 2.232a80 80 0 0 1-.096 2.496q-.312.12-.816.192a5.4 5.4 0 0 1-1.008.096q-1.056 0-1.656-.336-.576-.336-.576-1.224l.696-12.24q.192-.312.84-.672t1.824-.36q1.272 0 1.992.408.72.384 1.056 1.272.216.576.456 1.32.264.744.504 1.536.264.792.504 1.584.24.768.432 1.392h.12q.576-2.016 1.152-3.888.576-1.896 1.056-3.168.36-.192.912-.312a5.2 5.2 0 0 1 1.272-.144q1.176 0 1.92.36.744.336.864.984.096.48.192 1.488.12.984.24 2.232a269 269 0 0 1 .456 5.328 86 86 0 0 1 .288 3.984q-.408.24-.864.336-.432.12-1.128.12-.912 0-1.536-.312t-.672-1.224q-.144-2.616-.192-4.704a92 92 0 0 0-.096-3.504h-.12q-.24.936-.696 2.352t-1.104 3.624m10.23.6q-.265-.6-.577-1.344a56 56 0 0 1-.624-1.704 82 82 0 0 1-.672-2.184q-.336-1.248-.72-2.856.336-.336.888-.576a3 3 0 0 1 1.248-.264q.84 0 1.392.36.552.336.816 1.296l1.896 6.6h.096q.288-.816.552-1.776.288-.96.552-1.968.264-1.032.48-2.04.24-1.032.408-2.016a4 4 0 0 1 1.896-.456q.84 0 1.392.36t.552 1.248q0 .648-.168 1.512-.168.84-.456 1.8-.264.96-.648 1.992-.36 1.008-.768 1.992t-.84 1.872a27 27 0 0 1-.84 1.56q-.672 1.176-1.248 1.92c-.576.744-.752.88-1.104 1.152q-.528.432-1.056.576-.528.168-1.104.168-1.008 0-1.632-.6t-.744-1.56q.768-.6 1.536-1.344.768-.72 1.392-1.488-.408-.12-.888-.552-.456-.456-1.008-1.68Z"/></svg>